<?xml version="1.0" standalone="no"?>
<!-- Generator: Adobe Fireworks 10, Export SVG Extension by Aaron Beall (http://fireworks.abeall.com) . Version: 0.6.1  -->
<!DOCTYPE svg PUBLIC "-//W3C//DTD SVG 1.1//EN" "http://www.w3.org/Graphics/SVG/1.1/DTD/svg11.dtd">
<svg id="menuIcon_Sale-Page%201" viewBox="0 0 20 20" style="background-color:#ffffff00" version="1.1"
	xmlns="http://www.w3.org/2000/svg" xmlns:xlink="http://www.w3.org/1999/xlink" xml:space="preserve"
	x="0px" y="0px" width="20px" height="20px"
>
	<g id="Layer%201">
		<path id="Shape%2020" d="M 20 10.0001 L 17.3235 11.9626 L 18.66 15 L 15.3617 15.3617 L 15 18.6601 L 11.9625 17.3243 L 10 20.0001 L 8.0375 17.3236 L 5 18.6601 L 4.6384 15.3617 L 1.34 15 L 2.6757 11.9626 L 0 10.0001 L 2.6764 8.0376 L 1.34 5 L 4.6384 4.6385 L 5 1.34 L 8.0375 2.6759 L 10 0.0001 L 11.9625 2.6767 L 15 1.34 L 15.3617 4.6385 L 18.66 5 L 17.3242 8.0376 L 20 10.0001 ZM 9.7223 7.0094 C 9.7223 6.4352 9.5393 5.9568 9.1716 5.5743 C 8.805 5.1917 8.301 5.0002 7.66 5.0002 C 7.0241 5.0002 6.5216 5.1927 6.155 5.5777 C 5.7875 5.9627 5.6043 6.4395 5.6043 7.0095 L 5.6043 7.5236 C 5.6041 8.0934 5.7891 8.5682 6.1582 8.9484 C 6.5275 9.3292 7.0325 9.5192 7.6732 9.5192 C 8.3048 9.5192 8.8043 9.3292 9.1716 8.9484 C 9.5393 8.5685 9.7223 8.0934 9.7223 7.5234 L 9.7223 7.0094 ZM 11.92 6.0553 L 7.1734 13.6519 L 8.0075 14.1326 L 12.7542 6.5359 L 11.92 6.0553 ZM 14.3959 12.4766 C 14.3959 11.9075 14.2125 11.431 13.845 11.0484 C 13.4783 10.6659 12.974 10.474 12.3333 10.474 C 11.7017 10.474 11.2008 10.6665 10.8316 11.0517 C 10.4625 11.4363 10.2776 11.9113 10.2776 12.4763 L 10.2776 12.9972 C 10.2776 13.5667 10.4621 14.0427 10.8316 14.4256 C 11.2008 14.808 11.7059 14.9998 12.3466 14.9998 C 12.978 14.9998 13.4783 14.81 13.845 14.4287 C 14.2125 14.0489 14.3959 13.5715 14.3959 12.9972 L 14.3959 12.4766 ZM 12.3458 14.0242 C 12.0529 14.0242 11.8222 13.9241 11.6553 13.7243 C 11.4889 13.5241 11.4056 13.2816 11.4056 12.9966 L 11.4056 12.476 C 11.4056 12.1911 11.4854 11.9483 11.6455 11.7485 C 11.806 11.5484 12.0351 11.4485 12.3333 11.4485 C 12.6315 11.4485 12.8617 11.5484 13.0242 11.7476 C 13.1867 11.9476 13.2671 12.19 13.2671 12.4749 L 13.2671 12.996 C 13.2671 13.2942 13.1922 13.5401 13.0403 13.7333 C 12.8892 13.9276 12.6577 14.0242 12.3458 14.0242 ZM 7.6734 8.545 C 7.371 8.545 7.1384 8.446 6.9759 8.2476 C 6.8134 8.05 6.7329 7.8085 6.7329 7.5234 L 6.7329 7.0094 C 6.7329 6.72 6.8127 6.4751 6.9728 6.2752 C 7.1328 6.0752 7.3621 5.9753 7.6603 5.9753 C 7.9545 5.9753 8.1821 6.0752 8.3446 6.2752 C 8.5072 6.4752 8.5878 6.7202 8.5878 7.0094 L 8.5878 7.5234 C 8.5878 7.8125 8.5096 8.055 8.3513 8.251 C 8.1934 8.4467 7.9675 8.545 7.6734 8.545 Z" fill="#b43225"/>
	</g>
</svg>