<?xml version="1.0" standalone="no"?>
<!-- Generator: Adobe Fireworks 10, Export SVG Extension by Aaron Beall (http://fireworks.abeall.com) . Version: 0.6.1  -->
<!DOCTYPE svg PUBLIC "-//W3C//DTD SVG 1.1//EN" "http://www.w3.org/Graphics/SVG/1.1/DTD/svg11.dtd">
<svg id="Untitled-Page%201" viewBox="0 0 32 30" style="background-color:#ffffff00" version="1.1"
	xmlns="http://www.w3.org/2000/svg" xmlns:xlink="http://www.w3.org/1999/xlink" xml:space="preserve"
	x="0px" y="0px" width="32px" height="30px"
>
	<path id="Winkelmand" d="M 16.0011 16 C 16.4523 16 16.9063 15.8477 17.2804 15.5353 C 18.129 14.8281 18.2433 13.5684 17.5363 12.7188 L 7.5372 0.7188 C 6.8302 -0.1289 5.5704 -0.244 4.7189 0.4649 C 3.8712 1.1719 3.756 2.4317 4.463 3.2813 L 14.464 15.2812 C 14.8594 15.754 15.4279 16 16.0011 16 ZM 0 14.0001 L 0 16 C 0 17.1056 0.8947 18.0001 2 18.0001 L 4.0001 30 L 28.0001 30 L 30 18.0001 C 31.1045 18.0001 32 17.1055 32 16 L 32 14.0001 C 32 12.8947 31.1045 12.0001 30 12.0001 L 18.2384 12.0001 L 18.3048 12.0802 C 19.3634 13.3516 19.1915 15.2461 17.92 16.3049 C 17.382 16.7541 16.7003 17.0002 16.0011 17.0002 C 15.1075 17.0002 14.2677 16.6076 13.6954 15.922 L 10.4279 12.0001 L 2 12.0001 C 0.8947 12.0001 0 12.8947 0 14.0001 ZM 23 21.0001 C 23 20.4474 23.4473 20.0001 24 20.0001 C 24.5529 20.0001 25 20.4474 25 21.0001 L 25 27.0001 C 25 27.5528 24.5529 28.0001 24 28.0001 C 23.4473 28.0001 23 27.5528 23 27.0001 L 23 21.0001 ZM 19.0001 21.0001 C 19.0001 20.4474 19.4474 20.0001 20.0001 20.0001 C 20.5529 20.0001 21.0001 20.4474 21.0001 21.0001 L 21.0001 27.0001 C 21.0001 27.5528 20.5529 28.0001 20.0001 28.0001 C 19.4474 28.0001 19.0001 27.5528 19.0001 27.0001 L 19.0001 21.0001 ZM 15 21.0001 C 15 20.4474 15.4473 20.0001 16 20.0001 C 16.5529 20.0001 17 20.4474 17 21.0001 L 17 27.0001 C 17 27.5528 16.5529 28.0001 16 28.0001 C 15.4473 28.0001 15 27.5528 15 27.0001 L 15 21.0001 ZM 11.0001 21.0001 C 11.0001 20.4474 11.4474 20.0001 12.0001 20.0001 C 12.5529 20.0001 13.0001 20.4474 13.0001 21.0001 L 13.0001 27.0001 C 13.0001 27.5528 12.5529 28.0001 12.0001 28.0001 C 11.4474 28.0001 11.0001 27.5528 11.0001 27.0001 L 11.0001 21.0001 ZM 7 21.0001 C 7 20.4474 7.4473 20.0001 8 20.0001 C 8.5529 20.0001 9 20.4474 9 21.0001 L 9 27.0001 C 9 27.5528 8.5529 28.0001 8 28.0001 C 7.4473 28.0001 7 27.5528 7 27.0001 L 7 21.0001 Z" fill="#333333"/>
</svg>