<?xml version="1.0" standalone="no"?>
<!-- Generator: Adobe Fireworks 10, Export SVG Extension by Aaron Beall (http://fireworks.abeall.com) . Version: 0.6.1  -->
<!DOCTYPE svg PUBLIC "-//W3C//DTD SVG 1.1//EN" "http://www.w3.org/Graphics/SVG/1.1/DTD/svg11.dtd">
<svg id="Untitled-Page%201" viewBox="0 0 27 25" style="background-color:#ffffff00" version="1.1"
	xmlns="http://www.w3.org/2000/svg" xmlns:xlink="http://www.w3.org/1999/xlink" xml:space="preserve"
	x="0px" y="0px" width="27px" height="25px"
>
	<path id="Shape%2012" d="M 13.5009 13.3335 C 13.8817 13.3335 14.2647 13.2066 14.5804 12.9461 C 15.2964 12.3568 15.3928 11.3071 14.7963 10.599 L 6.3596 0.599 C 5.7631 -0.1074 4.7001 -0.2033 3.9816 0.3875 C 3.2664 0.9766 3.1692 2.0266 3.7657 2.7345 L 12.204 12.7344 C 12.5377 13.1284 13.0172 13.3335 13.5009 13.3335 ZM 0.0001 11.6667 L 0.0001 13.3335 C 0.0001 14.2547 0.7549 15.0002 1.6876 15.0002 L 3.3751 25 L 23.6251 25 L 25.3126 15.0002 C 26.2445 15.0002 27.0001 14.2547 27.0001 13.3335 L 27.0001 11.6667 C 27.0001 10.7456 26.2445 10.0001 25.3126 10.0001 L 15.3887 10.0001 L 15.4447 10.0669 C 16.3379 11.1264 16.1929 12.7052 15.1201 13.5874 C 14.666 13.9618 14.0909 14.1669 13.5009 14.1669 C 12.747 14.1669 12.0385 13.8398 11.5555 13.2684 L 8.7986 10.0001 L 1.6876 10.0001 C 0.7549 10.0001 0.0001 10.7456 0.0001 11.6667 ZM 19.4063 17.5002 C 19.4063 17.0396 19.7837 16.6668 20.2501 16.6668 C 20.7165 16.6668 21.0938 17.0396 21.0938 17.5002 L 21.0938 22.5001 C 21.0938 22.9607 20.7165 23.3335 20.2501 23.3335 C 19.7837 23.3335 19.4063 22.9607 19.4063 22.5001 L 19.4063 17.5002 ZM 16.0314 17.5002 C 16.0314 17.0396 16.4087 16.6668 16.8751 16.6668 C 17.3415 16.6668 17.7188 17.0396 17.7188 17.5002 L 17.7188 22.5001 C 17.7188 22.9607 17.3415 23.3335 16.8751 23.3335 C 16.4087 23.3335 16.0314 22.9607 16.0314 22.5001 L 16.0314 17.5002 ZM 12.6563 17.5002 C 12.6563 17.0396 13.0337 16.6668 13.5001 16.6668 C 13.9666 16.6668 14.3438 17.0396 14.3438 17.5002 L 14.3438 22.5001 C 14.3438 22.9607 13.9666 23.3335 13.5001 23.3335 C 13.0337 23.3335 12.6563 22.9607 12.6563 22.5001 L 12.6563 17.5002 ZM 9.2814 17.5002 C 9.2814 17.0396 9.6587 16.6668 10.1251 16.6668 C 10.5915 16.6668 10.9688 17.0396 10.9688 17.5002 L 10.9688 22.5001 C 10.9688 22.9607 10.5915 23.3335 10.1251 23.3335 C 9.6587 23.3335 9.2814 22.9607 9.2814 22.5001 L 9.2814 17.5002 ZM 5.9063 17.5002 C 5.9063 17.0396 6.2837 16.6668 6.7501 16.6668 C 7.2165 16.6668 7.5938 17.0396 7.5938 17.5002 L 7.5938 22.5001 C 7.5938 22.9607 7.2165 23.3335 6.7501 23.3335 C 6.2837 23.3335 5.9063 22.9607 5.9063 22.5001 L 5.9063 17.5002 Z" fill="#ffffff"/>
</svg>