<?xml version="1.0" standalone="no"?>
<!-- Generator: Adobe Fireworks 10, Export SVG Extension by Aaron Beall (http://fireworks.abeall.com) . Version: 0.6.1  -->
<!DOCTYPE svg PUBLIC "-//W3C//DTD SVG 1.1//EN" "http://www.w3.org/Graphics/SVG/1.1/DTD/svg11.dtd">
<svg id="Untitled-Page%201" viewBox="0 0 19 18" style="background-color:#ffffff00" version="1.1"
	xmlns="http://www.w3.org/2000/svg" xmlns:xlink="http://www.w3.org/1999/xlink" xml:space="preserve"
	x="0px" y="0px" width="19px" height="18px"
>
	<path id="Star" d="M 18.6818 7.6555 L 13.7324 11.2176 L 15.6232 16.9812 C 15.7257 17.2933 15.613 17.6349 15.3457 17.8279 C 15.2114 17.9242 15.054 17.9724 14.8961 17.9724 C 14.7384 17.9724 14.5806 17.9242 14.4471 17.8279 L 9.4979 14.2656 L 4.5494 17.8276 C 4.281 18.0205 3.9182 18.0205 3.6504 17.8276 C 3.3831 17.6347 3.2705 17.293 3.3729 16.9809 L 5.2631 11.2171 L 0.3145 7.6555 C 0.0464 7.4626 -0.0662 7.1209 0.0363 6.8089 C 0.1389 6.4968 0.4329 6.2856 0.7637 6.2856 L 6.8807 6.2856 L 8.7709 0.5226 C 8.8733 0.2103 9.167 -0.0008 9.4985 -0.0008 C 9.8297 -0.0008 10.1229 0.2103 10.2252 0.5226 L 12.1154 6.2856 L 18.233 6.2856 C 18.5637 6.2856 18.8574 6.4968 18.9602 6.8089 C 19.0615 7.1209 18.9491 7.4626 18.6818 7.6555 Z" fill="#ffc111"/>
</svg>